<mxfile host="app.diagrams.net" modified="2024-05-16T07:29:00.877Z" agent="Mozilla/5.0 (Windows NT 10.0; Win64; x64) AppleWebKit/537.36 (KHTML, like Gecko) Chrome/124.0.0.0 Safari/537.36" etag="wg9UYnl4zqioVZEPp3gI" version="24.1.0" type="device">
  <diagram name="Page-1" id="_MDC-iJTTF_jpSJEV-Ld">
    <mxGraphModel dx="1393" dy="818" grid="1" gridSize="10" guides="1" tooltips="1" connect="1" arrows="1" fold="1" page="1" pageScale="1" pageWidth="850" pageHeight="1100" math="0" shadow="0">
      <root>
        <mxCell id="0" />
        <mxCell id="1" parent="0" />
        <mxCell id="DlC24ixFXXdRtT2Mmo7n-6" value="User" style="swimlane;fontStyle=0;childLayout=stackLayout;horizontal=1;startSize=30;horizontalStack=0;resizeParent=1;resizeParentMax=0;resizeLast=0;collapsible=1;marginBottom=0;whiteSpace=wrap;html=1;" vertex="1" parent="1">
          <mxGeometry x="43" y="250" width="140" height="150" as="geometry" />
        </mxCell>
        <mxCell id="DlC24ixFXXdRtT2Mmo7n-7" value="&lt;u&gt;ID&lt;/u&gt;" style="text;strokeColor=none;fillColor=none;align=left;verticalAlign=middle;spacingLeft=4;spacingRight=4;overflow=hidden;points=[[0,0.5],[1,0.5]];portConstraint=eastwest;rotatable=0;whiteSpace=wrap;html=1;" vertex="1" parent="DlC24ixFXXdRtT2Mmo7n-6">
          <mxGeometry y="30" width="140" height="30" as="geometry" />
        </mxCell>
        <mxCell id="DlC24ixFXXdRtT2Mmo7n-8" value="Pseudo" style="text;strokeColor=none;fillColor=none;align=left;verticalAlign=middle;spacingLeft=4;spacingRight=4;overflow=hidden;points=[[0,0.5],[1,0.5]];portConstraint=eastwest;rotatable=0;whiteSpace=wrap;html=1;" vertex="1" parent="DlC24ixFXXdRtT2Mmo7n-6">
          <mxGeometry y="60" width="140" height="30" as="geometry" />
        </mxCell>
        <mxCell id="DlC24ixFXXdRtT2Mmo7n-9" value="Mail" style="text;strokeColor=none;fillColor=none;align=left;verticalAlign=middle;spacingLeft=4;spacingRight=4;overflow=hidden;points=[[0,0.5],[1,0.5]];portConstraint=eastwest;rotatable=0;whiteSpace=wrap;html=1;" vertex="1" parent="DlC24ixFXXdRtT2Mmo7n-6">
          <mxGeometry y="90" width="140" height="30" as="geometry" />
        </mxCell>
        <mxCell id="DlC24ixFXXdRtT2Mmo7n-10" value="Mot de passe" style="text;strokeColor=none;fillColor=none;align=left;verticalAlign=middle;spacingLeft=4;spacingRight=4;overflow=hidden;points=[[0,0.5],[1,0.5]];portConstraint=eastwest;rotatable=0;whiteSpace=wrap;html=1;rounded=0;fontFamily=Helvetica;fontSize=12;fontColor=default;" vertex="1" parent="DlC24ixFXXdRtT2Mmo7n-6">
          <mxGeometry y="120" width="140" height="30" as="geometry" />
        </mxCell>
        <mxCell id="DlC24ixFXXdRtT2Mmo7n-11" value="Pxel" style="swimlane;fontStyle=0;childLayout=stackLayout;horizontal=1;startSize=30;horizontalStack=0;resizeParent=1;resizeParentMax=0;resizeLast=0;collapsible=1;marginBottom=0;whiteSpace=wrap;html=1;" vertex="1" parent="1">
          <mxGeometry x="653" y="250" width="140" height="120" as="geometry" />
        </mxCell>
        <mxCell id="DlC24ixFXXdRtT2Mmo7n-12" value="&lt;u&gt;ID&lt;/u&gt;" style="text;strokeColor=none;fillColor=none;align=left;verticalAlign=middle;spacingLeft=4;spacingRight=4;overflow=hidden;points=[[0,0.5],[1,0.5]];portConstraint=eastwest;rotatable=0;whiteSpace=wrap;html=1;" vertex="1" parent="DlC24ixFXXdRtT2Mmo7n-11">
          <mxGeometry y="30" width="140" height="30" as="geometry" />
        </mxCell>
        <mxCell id="DlC24ixFXXdRtT2Mmo7n-13" value="Position" style="text;strokeColor=none;fillColor=none;align=left;verticalAlign=middle;spacingLeft=4;spacingRight=4;overflow=hidden;points=[[0,0.5],[1,0.5]];portConstraint=eastwest;rotatable=0;whiteSpace=wrap;html=1;" vertex="1" parent="DlC24ixFXXdRtT2Mmo7n-11">
          <mxGeometry y="60" width="140" height="30" as="geometry" />
        </mxCell>
        <mxCell id="DlC24ixFXXdRtT2Mmo7n-14" value="Couleur" style="text;strokeColor=none;fillColor=none;align=left;verticalAlign=middle;spacingLeft=4;spacingRight=4;overflow=hidden;points=[[0,0.5],[1,0.5]];portConstraint=eastwest;rotatable=0;whiteSpace=wrap;html=1;" vertex="1" parent="DlC24ixFXXdRtT2Mmo7n-11">
          <mxGeometry y="90" width="140" height="30" as="geometry" />
        </mxCell>
        <mxCell id="DlC24ixFXXdRtT2Mmo7n-15" value="Grille" style="swimlane;fontStyle=0;childLayout=stackLayout;horizontal=1;startSize=30;horizontalStack=0;resizeParent=1;resizeParentMax=0;resizeLast=0;collapsible=1;marginBottom=0;whiteSpace=wrap;html=1;" vertex="1" parent="1">
          <mxGeometry x="363" y="510" width="140" height="150" as="geometry" />
        </mxCell>
        <mxCell id="DlC24ixFXXdRtT2Mmo7n-16" value="&lt;u&gt;ID&lt;/u&gt;" style="text;strokeColor=none;fillColor=none;align=left;verticalAlign=middle;spacingLeft=4;spacingRight=4;overflow=hidden;points=[[0,0.5],[1,0.5]];portConstraint=eastwest;rotatable=0;whiteSpace=wrap;html=1;" vertex="1" parent="DlC24ixFXXdRtT2Mmo7n-15">
          <mxGeometry y="30" width="140" height="30" as="geometry" />
        </mxCell>
        <mxCell id="DlC24ixFXXdRtT2Mmo7n-17" value="Taille" style="text;strokeColor=none;fillColor=none;align=left;verticalAlign=middle;spacingLeft=4;spacingRight=4;overflow=hidden;points=[[0,0.5],[1,0.5]];portConstraint=eastwest;rotatable=0;whiteSpace=wrap;html=1;" vertex="1" parent="DlC24ixFXXdRtT2Mmo7n-15">
          <mxGeometry y="60" width="140" height="30" as="geometry" />
        </mxCell>
        <mxCell id="DlC24ixFXXdRtT2Mmo7n-18" value="Date de Creation" style="text;strokeColor=none;fillColor=none;align=left;verticalAlign=middle;spacingLeft=4;spacingRight=4;overflow=hidden;points=[[0,0.5],[1,0.5]];portConstraint=eastwest;rotatable=0;whiteSpace=wrap;html=1;" vertex="1" parent="DlC24ixFXXdRtT2Mmo7n-15">
          <mxGeometry y="90" width="140" height="30" as="geometry" />
        </mxCell>
        <mxCell id="DlC24ixFXXdRtT2Mmo7n-40" value="CrÃ©ateur" style="rounded=0;whiteSpace=wrap;html=1;align=left;verticalAlign=middle;spacingLeft=4;spacingRight=4;fontFamily=Helvetica;fontSize=12;fontColor=default;fillColor=none;gradientColor=none;strokeColor=none;" vertex="1" parent="DlC24ixFXXdRtT2Mmo7n-15">
          <mxGeometry y="120" width="140" height="30" as="geometry" />
        </mxCell>
        <mxCell id="DlC24ixFXXdRtT2Mmo7n-21" value="" style="endArrow=none;html=1;rounded=0;fontFamily=Helvetica;fontSize=12;fontColor=default;exitX=1;exitY=0.5;exitDx=0;exitDy=0;entryX=0;entryY=0.5;entryDx=0;entryDy=0;" edge="1" parent="1" source="DlC24ixFXXdRtT2Mmo7n-22" target="DlC24ixFXXdRtT2Mmo7n-13">
          <mxGeometry width="50" height="50" relative="1" as="geometry">
            <mxPoint x="203" y="340" as="sourcePoint" />
            <mxPoint x="253" y="290" as="targetPoint" />
          </mxGeometry>
        </mxCell>
        <mxCell id="DlC24ixFXXdRtT2Mmo7n-23" value="" style="endArrow=none;html=1;rounded=0;fontFamily=Helvetica;fontSize=12;fontColor=default;exitX=1;exitY=0.5;exitDx=0;exitDy=0;entryX=0;entryY=0.5;entryDx=0;entryDy=0;" edge="1" parent="1" source="DlC24ixFXXdRtT2Mmo7n-8" target="DlC24ixFXXdRtT2Mmo7n-22">
          <mxGeometry width="50" height="50" relative="1" as="geometry">
            <mxPoint x="183" y="325" as="sourcePoint" />
            <mxPoint x="463" y="325" as="targetPoint" />
          </mxGeometry>
        </mxCell>
        <mxCell id="DlC24ixFXXdRtT2Mmo7n-22" value="Placer" style="ellipse;whiteSpace=wrap;html=1;rounded=1;align=center;verticalAlign=middle;spacingLeft=4;spacingRight=4;fontFamily=Helvetica;fontSize=12;fontColor=default;fillColor=none;gradientColor=none;" vertex="1" parent="1">
          <mxGeometry x="393" y="300" width="95" height="50" as="geometry" />
        </mxCell>
        <mxCell id="DlC24ixFXXdRtT2Mmo7n-24" value="0.N" style="text;html=1;align=center;verticalAlign=middle;whiteSpace=wrap;rounded=0;fontFamily=Helvetica;fontSize=12;fontColor=default;" vertex="1" parent="1">
          <mxGeometry x="183" y="295" width="60" height="30" as="geometry" />
        </mxCell>
        <mxCell id="DlC24ixFXXdRtT2Mmo7n-25" value="1.1" style="text;html=1;align=center;verticalAlign=middle;whiteSpace=wrap;rounded=0;fontFamily=Helvetica;fontSize=12;fontColor=default;" vertex="1" parent="1">
          <mxGeometry x="593" y="290" width="60" height="30" as="geometry" />
        </mxCell>
        <mxCell id="DlC24ixFXXdRtT2Mmo7n-26" value="" style="endArrow=none;html=1;rounded=0;fontFamily=Helvetica;fontSize=12;fontColor=default;entryX=0.471;entryY=1.1;entryDx=0;entryDy=0;exitX=1;exitY=0.5;exitDx=0;exitDy=0;entryPerimeter=0;" edge="1" parent="1" source="DlC24ixFXXdRtT2Mmo7n-28" target="DlC24ixFXXdRtT2Mmo7n-14">
          <mxGeometry width="50" height="50" relative="1" as="geometry">
            <mxPoint x="583" y="430" as="sourcePoint" />
            <mxPoint x="633" y="380" as="targetPoint" />
            <Array as="points">
              <mxPoint x="719" y="555" />
            </Array>
          </mxGeometry>
        </mxCell>
        <mxCell id="DlC24ixFXXdRtT2Mmo7n-27" value="" style="endArrow=none;html=1;rounded=0;fontFamily=Helvetica;fontSize=12;fontColor=default;entryX=0;entryY=0.5;entryDx=0;entryDy=0;exitX=1;exitY=0.5;exitDx=0;exitDy=0;" edge="1" parent="1" source="DlC24ixFXXdRtT2Mmo7n-16" target="DlC24ixFXXdRtT2Mmo7n-28">
          <mxGeometry width="50" height="50" relative="1" as="geometry">
            <mxPoint x="503" y="555" as="sourcePoint" />
            <mxPoint x="653" y="355" as="targetPoint" />
            <Array as="points" />
          </mxGeometry>
        </mxCell>
        <mxCell id="DlC24ixFXXdRtT2Mmo7n-28" value="Poser" style="ellipse;whiteSpace=wrap;html=1;rounded=1;align=center;verticalAlign=middle;spacingLeft=4;spacingRight=4;fontFamily=Helvetica;fontSize=12;fontColor=default;fillColor=none;gradientColor=none;" vertex="1" parent="1">
          <mxGeometry x="613" y="530" width="90" height="50" as="geometry" />
        </mxCell>
        <mxCell id="DlC24ixFXXdRtT2Mmo7n-29" value="0.N" style="text;html=1;align=center;verticalAlign=middle;whiteSpace=wrap;rounded=0;fontFamily=Helvetica;fontSize=12;fontColor=default;" vertex="1" parent="1">
          <mxGeometry x="663" y="370" width="60" height="30" as="geometry" />
        </mxCell>
        <mxCell id="DlC24ixFXXdRtT2Mmo7n-30" value="0.N" style="text;html=1;align=center;verticalAlign=middle;whiteSpace=wrap;rounded=0;fontFamily=Helvetica;fontSize=12;fontColor=default;" vertex="1" parent="1">
          <mxGeometry x="503" y="520" width="60" height="30" as="geometry" />
        </mxCell>
        <mxCell id="DlC24ixFXXdRtT2Mmo7n-31" value="" style="endArrow=none;html=1;rounded=0;fontFamily=Helvetica;fontSize=12;fontColor=default;exitX=0.486;exitY=1.1;exitDx=0;exitDy=0;exitPerimeter=0;entryX=0;entryY=0.5;entryDx=0;entryDy=0;" edge="1" parent="1" source="DlC24ixFXXdRtT2Mmo7n-10" target="DlC24ixFXXdRtT2Mmo7n-16">
          <mxGeometry width="50" height="50" relative="1" as="geometry">
            <mxPoint x="433" y="350" as="sourcePoint" />
            <mxPoint x="483" y="300" as="targetPoint" />
            <Array as="points">
              <mxPoint x="111" y="555" />
            </Array>
          </mxGeometry>
        </mxCell>
        <mxCell id="DlC24ixFXXdRtT2Mmo7n-34" value="SÃ©lectionner" style="ellipse;whiteSpace=wrap;html=1;rounded=1;align=center;verticalAlign=middle;spacingLeft=4;spacingRight=4;fontFamily=Helvetica;fontSize=12;fontColor=default;fillColor=none;gradientColor=none;" vertex="1" parent="1">
          <mxGeometry x="131" y="517" width="110" height="60" as="geometry" />
        </mxCell>
        <mxCell id="DlC24ixFXXdRtT2Mmo7n-37" value="0.N" style="text;html=1;align=center;verticalAlign=middle;whiteSpace=wrap;rounded=0;fontFamily=Helvetica;fontSize=12;fontColor=default;" vertex="1" parent="1">
          <mxGeometry x="111" y="402" width="60" height="30" as="geometry" />
        </mxCell>
        <mxCell id="DlC24ixFXXdRtT2Mmo7n-38" value="0.N" style="text;html=1;align=center;verticalAlign=middle;whiteSpace=wrap;rounded=0;fontFamily=Helvetica;fontSize=12;fontColor=default;" vertex="1" parent="1">
          <mxGeometry x="303" y="524" width="60" height="30" as="geometry" />
        </mxCell>
        <mxCell id="DlC24ixFXXdRtT2Mmo7n-41" value="&lt;h1&gt;&lt;b&gt;&lt;font style=&quot;font-size: 24px;&quot;&gt;ModÃ¨le entitÃ©s-associations:&lt;/font&gt;&lt;/b&gt;&lt;/h1&gt;" style="text;strokeColor=none;fillColor=none;align=left;verticalAlign=middle;spacingLeft=4;spacingRight=4;overflow=hidden;points=[[0,0.5],[1,0.5]];portConstraint=eastwest;rotatable=0;whiteSpace=wrap;html=1;fontFamily=Helvetica;fontSize=12;fontColor=default;" vertex="1" parent="1">
          <mxGeometry x="40" y="170" width="370" height="60" as="geometry" />
        </mxCell>
        <mxCell id="DlC24ixFXXdRtT2Mmo7n-42" value="&lt;h1&gt;ModÃ¨le relationnel:&lt;/h1&gt;" style="text;html=1;align=center;verticalAlign=middle;whiteSpace=wrap;rounded=0;fontFamily=Helvetica;fontSize=12;fontColor=default;" vertex="1" parent="1">
          <mxGeometry x="29" y="707" width="300" height="40" as="geometry" />
        </mxCell>
        <mxCell id="DlC24ixFXXdRtT2Mmo7n-43" value="&lt;font style=&quot;font-size: 14px;&quot;&gt;User:(&amp;nbsp;&lt;u&gt;ID&lt;/u&gt;,&amp;nbsp;&lt;span style=&quot;&quot;&gt;Pseudo&lt;/span&gt;, Mail, Mot de passe)&lt;/font&gt;" style="text;html=1;align=left;verticalAlign=middle;whiteSpace=wrap;rounded=0;fontFamily=Helvetica;fontSize=12;fontColor=default;" vertex="1" parent="1">
          <mxGeometry x="110" y="767" width="349" height="30" as="geometry" />
        </mxCell>
        <mxCell id="DlC24ixFXXdRtT2Mmo7n-44" value="&lt;font style=&quot;font-size: 14px;&quot;&gt;Pixel:(&amp;nbsp;&lt;u&gt;ID&lt;/u&gt;, Position,Couleur)&lt;/font&gt;" style="text;html=1;align=left;verticalAlign=middle;whiteSpace=wrap;rounded=0;fontFamily=Helvetica;fontSize=12;fontColor=default;" vertex="1" parent="1">
          <mxGeometry x="110" y="797" width="349" height="30" as="geometry" />
        </mxCell>
        <mxCell id="DlC24ixFXXdRtT2Mmo7n-46" value="&lt;font style=&quot;font-size: 14px;&quot;&gt;Grille:(&amp;nbsp;&lt;u&gt;ID&lt;/u&gt;, Taille, Date de CrÃ©ation, CrÃ©ateur)&lt;/font&gt;" style="text;html=1;align=left;verticalAlign=middle;whiteSpace=wrap;rounded=0;fontFamily=Helvetica;fontSize=12;fontColor=default;" vertex="1" parent="1">
          <mxGeometry x="110" y="827" width="349" height="30" as="geometry" />
        </mxCell>
      </root>
    </mxGraphModel>
  </diagram>
</mxfile>
